<?xml version="1.0" encoding="UTF-8"?>
<svg id="a" data-name="Layer 1" xmlns="http://www.w3.org/2000/svg" viewBox="0 0 256 259">
  <defs>
    <style>
      .b {
        fill: #fff;
      }

      .b, .c {
        stroke-width: 0px;
      }

      .c {
        fill: #eaa149;
      }
    </style>
  </defs>
  <circle class="c" cx="128" cy="129.5" r="128"/>
  <path class="b" d="M133.28,58.45l19.34,38.68c1.14,1.71,2.84,3.41,4.55,3.41l42.67,6.26c5.12,1.14,7.4,6.83,3.41,10.81l-30.72,30.72c-1.14,1.14-2.28,3.41-1.71,5.69l7.4,42.67c1.14,5.12-4.55,9.1-9.1,6.26l-38.12-19.91c-1.71-1.14-3.98-1.14-5.69,0l-38.68,19.91c-4.55,2.28-10.24-1.14-9.1-6.26l7.4-42.67c.57-1.71-.57-3.98-1.71-5.69l-30.72-30.15c-3.41-3.41-1.71-10.24,3.41-10.81l42.67-6.26c1.71-.57,3.41-1.14,4.55-3.41l19.34-38.68c1.71-5.12,8.53-5.12,10.81-.57Z"/>
</svg>