<?xml version="1.0" encoding="UTF-8"?>
<svg id="a" data-name="Layer 1" xmlns="http://www.w3.org/2000/svg" viewBox="0 0 256 256">
  <defs>
    <style>
      .b {
        fill: #e88102;
      }

      .b, .c, .d, .e {
        stroke-width: 0px;
      }

      .c {
        fill: #fdd835;
      }

      .d {
        fill: #f39e09;
      }

      .e {
        fill: #feec9a;
      }
    </style>
  </defs>
  <circle class="b" cx="127.86" cy="134.07" r="120.24"/>
  <circle class="d" cx="127.86" cy="121.65" r="98.35"/>
  <path class="b" d="M127.86,40.16c50.52,0,92.11,38.09,97.69,87.11.42-3.69.66-7.44.66-11.24,0-54.32-44.03-98.35-98.35-98.35S29.51,61.71,29.51,116.03c0,3.8.24,7.55.66,11.24,5.58-49.02,47.18-87.11,97.69-87.11Z"/>
  <path class="e" d="M127.86,1.41C61.45,1.41,7.61,55.24,7.61,121.65s53.83,120.24,120.24,120.24,120.24-53.83,120.24-120.24S194.27,1.41,127.86,1.41ZM127.86,214.76c-51.43,0-93.11-41.69-93.11-93.11,0-51.43,41.69-93.12,93.11-93.12s93.11,41.69,93.11,93.12-41.69,93.11-93.11,93.11Z"/>
  <path class="c" d="M127.86,1.41C61.45,1.41,7.61,55.24,7.61,121.65s53.83,120.24,120.24,120.24,120.24-53.83,120.24-120.24S194.27,1.41,127.86,1.41ZM127.86,214.76c-51.43,0-93.11-41.69-93.11-93.11,0-51.43,41.69-93.12,93.11-93.12s93.11,41.69,93.11,93.12-41.69,93.11-93.11,93.11Z"/>
  <path class="e" d="M235.82,68.7l-20.62,20.62c3.49,9.42,5.47,19.56,5.72,30.13l24.23-24.23c-2.09-9.29-5.23-18.18-9.33-26.52Z"/>
  <path class="e" d="M125.66,214.71c-10.57-.24-20.71-2.23-30.13-5.72l-20.62,20.62c8.34,4.1,17.23,7.24,26.52,9.33l24.23-24.23Z"/>
  <path class="e" d="M44.22,162.6l-20,20c8.96,15.2,21.15,28.25,35.64,38.21l19.6-19.6c-15.12-9.22-27.4-22.63-35.24-38.61Z"/>
  <path class="e" d="M188.81,18.01l-20,20c15.98,7.84,29.4,20.12,38.61,35.24l19.6-19.6c-9.96-14.49-23.01-26.68-38.21-35.64Z"/>
  <path class="e" d="M141.52,29.54c4.05.6,8.01,1.47,11.87,2.57l21.26-21.26c-3.44-1.45-6.96-2.74-10.55-3.87l-22.57,22.57Z"/>
  <path class="e" d="M17.06,168.43l21.26-21.26c-1.1-3.86-1.97-7.82-2.57-11.87l-22.57,22.57c1.13,3.59,2.42,7.12,3.87,10.56Z"/>
</svg>